<svg width="273" height="291" viewBox="0 0 273 291" fill="none" xmlns="http://www.w3.org/2000/svg">
<g filter="url(#filter0_d_1_105)">
<mask id="path-1-inside-1_1_105" fill="white">
<path fill-rule="evenodd" clip-rule="evenodd" d="M96.1047 30.5887L80 30.5887C63.4315 30.5887 50 44.0202 50 60.5887V190.121C50 206.69 63.4315 220.121 80 220.121H192.458C209.026 220.121 222.458 206.69 222.458 190.121V60.5887C222.458 44.0202 209.026 30.5887 192.458 30.5887L177.207 30.5887C176.978 52.789 158.91 70.715 136.656 70.715C114.401 70.715 96.3336 52.789 96.1047 30.5887Z"/>
</mask>
<path fill-rule="evenodd" clip-rule="evenodd" d="M96.1047 30.5887L80 30.5887C63.4315 30.5887 50 44.0202 50 60.5887V190.121C50 206.69 63.4315 220.121 80 220.121H192.458C209.026 220.121 222.458 206.69 222.458 190.121V60.5887C222.458 44.0202 209.026 30.5887 192.458 30.5887L177.207 30.5887C176.978 52.789 158.91 70.715 136.656 70.715C114.401 70.715 96.3336 52.789 96.1047 30.5887Z" fill="#F1F6F6"/>
<path d="M80 30.5887V31.5887V30.5887ZM96.1047 30.5887L97.1046 30.5784L97.0944 29.5887H96.1047V30.5887ZM192.458 30.5887V31.5887V30.5887ZM177.207 30.5887V29.5887H176.217L176.207 30.5784L177.207 30.5887ZM80 31.5887H96.1047V29.5887H80V31.5887ZM51 60.5887C51 44.5725 63.9837 31.5887 80 31.5887V29.5887C62.8792 29.5887 49 43.4679 49 60.5887H51ZM51 190.121V60.5887H49V190.121H51ZM80 219.121C63.9837 219.121 51 206.137 51 190.121H49C49 207.242 62.8792 221.121 80 221.121V219.121ZM192.458 219.121H80V221.121H192.458V219.121ZM221.458 190.121C221.458 206.138 208.474 219.121 192.458 219.121V221.121C209.578 221.121 223.458 207.242 223.458 190.121H221.458ZM221.458 60.5887V190.121H223.458V60.5887H221.458ZM192.458 31.5887C208.474 31.5887 221.458 44.5725 221.458 60.5887H223.458C223.458 43.4679 209.578 29.5887 192.458 29.5887V31.5887ZM177.207 31.5887H192.458V29.5887H177.207V31.5887ZM176.207 30.5784C175.983 52.231 158.361 69.715 136.656 69.715V71.715C159.459 71.715 177.972 53.347 178.206 30.5991L176.207 30.5784ZM136.656 69.715C114.95 69.715 97.3279 52.231 97.1046 30.5784L95.1047 30.5991C95.3393 53.347 113.852 71.715 136.656 71.715V69.715Z" fill="#F9FEFE" mask="url(#path-1-inside-1_1_105)"/>
</g>
<defs>
<filter id="filter0_d_1_105" x="0" y="0.588745" width="272.458" height="289.533" filterUnits="userSpaceOnUse" color-interpolation-filters="sRGB">
<feFlood flood-opacity="0" result="BackgroundImageFix"/>
<feColorMatrix in="SourceAlpha" type="matrix" values="0 0 0 0 0 0 0 0 0 0 0 0 0 0 0 0 0 0 127 0" result="hardAlpha"/>
<feOffset dy="20"/>
<feGaussianBlur stdDeviation="25"/>
<feComposite in2="hardAlpha" operator="out"/>
<feColorMatrix type="matrix" values="0 0 0 0 0.369444 0 0 0 0 0.466667 0 0 0 0 0.381597 0 0 0 0.1 0"/>
<feBlend mode="normal" in2="BackgroundImageFix" result="effect1_dropShadow_1_105"/>
<feBlend mode="normal" in="SourceGraphic" in2="effect1_dropShadow_1_105" result="shape"/>
</filter>
</defs>
</svg>
